# Exported using automatic converter by Erwin Coumans
mtllib y2e2.mtl
#object _2

v 8.033770 -57.997002 0.000000
v 5.003470 -57.997002 0.000000
v 5.003470 -57.997002 15.000000
v 8.033770 -57.997002 15.000000
v 8.033770 -37.693901 0.000000
v 8.033770 -57.997002 0.000000
v 8.033770 -57.997002 15.000000
v 8.033770 -37.693901 15.000000
v 5.003470 -57.997002 0.000000
v 5.003470 -62.239399 0.000000
v 5.003470 -62.239399 15.000000
v 5.003470 -57.997002 15.000000
v 8.033770 27.457600 0.000000
v 8.033770 17.630199 0.000000
v 8.033770 -23.451500 0.000000
v 8.033770 -23.451500 15.000000
v 8.033770 27.457600 15.000000
usemtl FrontColor

vn 0.000000 1.000000 -0.000000
vn 0.000000 1.000000 -0.000000
vn 0.000000 1.000000 -0.000000
vn 0.000000 1.000000 -0.000000
vn -1.000000 0.000000 0.000000
vn -1.000000 0.000000 0.000000
vn -1.000000 0.000000 0.000000
vn -1.000000 0.000000 0.000000
vn -1.000000 0.000000 0.000000
vn -1.000000 0.000000 0.000000
vn -1.000000 0.000000 0.000000
vn -1.000000 0.000000 0.000000
vn -1.000000 -0.000000 -0.000000
vn -1.000000 -0.000000 -0.000000
vn -1.000000 -0.000000 -0.000000
vn -1.000000 -0.000000 -0.000000
vn -1.000000 -0.000000 -0.000000

vt -0.316290 0.000000
vt -0.196987 0.000000
vt -0.196987 0.590551
vt -0.316290 0.590551
vt 1.484010 0.000000
vt 2.283350 0.000000
vt 2.283350 0.590551
vt 1.484010 0.590551
vt 2.283350 0.000000
vt 2.450370 0.000000
vt 2.450370 0.590551
vt 2.283350 0.590551
vt -1.081010 0.000000
vt -0.694103 0.000000
vt 0.923288 0.000000
vt 0.923288 0.590551
vt -1.081010 0.590551
s off
f 1/1/1 2/2/2 3/3/3
f 1/1/1 3/3/3 4/4/4
f 5/5/5 6/6/6 7/7/7
f 5/5/5 7/7/7 8/8/8
f 9/9/9 10/10/10 11/11/11
f 9/9/9 11/11/11 12/12/12
f 13/13/13 14/14/14 15/15/15
f 13/13/13 15/15/15 16/16/16
f 13/13/13 16/16/16 17/17/17
